<svg xmlns="http://www.w3.org/2000/svg" viewBox="0 0 263 263"><defs><style>.cls-1{fill:#a1fdff;}.cls-2{fill:#fd7f73;}.cls-3{fill:#fc4c4c;}.cls-4{fill:#ffb8b8;}</style></defs><g id="레이어_2" data-name="레이어 2"><g id="레이어_7" data-name="레이어 7"><rect class="cls-1" width="263" height="263" rx="30.55"/><ellipse cx="171.63" cy="129.58" rx="17.34" ry="8.36" transform="translate(41.67 300.92) rotate(-89.87)"/><ellipse cx="91.37" cy="129.39" rx="17.34" ry="8.36" transform="matrix(0, -1, 1, 0, -38.22, 220.48)"/><path class="cls-2" d="M165.29,162.49c0-8.41-15.09-15.27-33.76-15.31s-33.8,6.74-33.82,15.16h.17a2,2,0,0,0,.9,1.63l29.05,19.91a6.47,6.47,0,0,0,7.25,0l29.13-19.78a2,2,0,0,0,.91-1.63Z"/><path class="cls-3" d="M131.46,187.63a9.06,9.06,0,0,1-5.12-1.58l-29-19.9a4.64,4.64,0,0,1-1.83-2.42,2.64,2.64,0,0,1-.39-1.4c0-10.18,15.68-17.87,36.46-17.79s36.41,7.77,36.38,18a2.56,2.56,0,0,1-.4,1.39,4.67,4.67,0,0,1-1.83,2.41l-29.13,19.78A9.12,9.12,0,0,1,131.46,187.63Zm-31-25.68,28.84,19.76a3.84,3.84,0,0,0,4.28,0l28.92-19.64c0-.11,0-.22.07-.33-1-5.76-13.45-11.9-31.06-11.94h-.17c-17.52,0-30,6.06-31,11.8A1.86,1.86,0,0,1,100.48,162Z"/><path class="cls-4" d="M110.93,160.28a2.63,2.63,0,0,1-1.43-4.85,16.77,16.77,0,0,1,5.23-2.23,17.48,17.48,0,0,1,6.37-.36,2.64,2.64,0,0,1-.67,5.23,12.38,12.38,0,0,0-4.46.24,11.9,11.9,0,0,0-3.62,1.55A2.64,2.64,0,0,1,110.93,160.28Z"/></g></g></svg>